HIERARCHY
ROOT Model
{
	OFFSET 0 0 0
	CHANNELS 6 Xposition Yposition Zposition Zrotation Xrotation Yrotation
	JOINT Model1
	{
		OFFSET 0 -2.25479 2.99384
		CHANNELS 3 Zrotation Xrotation Yrotation
		JOINT Model2
		{
			OFFSET 12.111 0 0
			CHANNELS 3 Zrotation Xrotation Yrotation
			JOINT Model3
			{
				OFFSET 11.5502 0 0
				CHANNELS 3 Zrotation Xrotation Yrotation
				JOINT Model4
				{
					OFFSET 11.781 0 0
					CHANNELS 3 Zrotation Xrotation Yrotation
					JOINT Model5
					{
						OFFSET 20.0601 0 0
						CHANNELS 3 Zrotation Xrotation Yrotation
						JOINT Model6
						{
							OFFSET 11.1962 0 0
							CHANNELS 3 Zrotation Xrotation Yrotation
							End Site
							{
								OFFSET 0 0 0
							}
						}
					}
					JOINT Model7
					{
						OFFSET 10.8223 0.417534 3.51114
						CHANNELS 3 Zrotation Xrotation Yrotation
						JOINT Model8
						{
							OFFSET -6.07944 0 0
							CHANNELS 3 Zrotation Xrotation Yrotation
							JOINT Model9
							{
								OFFSET -0.277405 10.39 -0.051239
								CHANNELS 3 Zrotation Xrotation Yrotation
								JOINT Model10
								{
									OFFSET -3.43909 -0.282043 1.86679
									CHANNELS 3 Zrotation Xrotation Yrotation
									JOINT Model11
									{
										OFFSET 13.0269 0 0
										CHANNELS 3 Zrotation Xrotation Yrotation
										JOINT Model12
										{
											OFFSET 10.8866 0 0
											CHANNELS 3 Zrotation Xrotation Yrotation
											JOINT Model13
											{
												OFFSET 16.7317 0 0
												CHANNELS 3 Zrotation Xrotation Yrotation
												JOINT Model14
												{
													OFFSET 11.8292 0 0
													CHANNELS 3 Zrotation Xrotation Yrotation
													JOINT Model15
													{
														OFFSET 4.82751 -3.73566 -0.836517
														CHANNELS 3 Zrotation Xrotation Yrotation
														JOINT Model16
														{
															OFFSET 3.75311 -0.0582886 -0.0186462
															CHANNELS 3 Zrotation Xrotation Yrotation
															JOINT Model17
															{
																OFFSET 2.88689 0.0192337 0.014801
																CHANNELS 3 Zrotation Xrotation Yrotation
																End Site
																{
																	OFFSET 0 0 0
																}
															}
														}
													}
													JOINT Model18
													{
														OFFSET 9.72197 -3.06458 0.23877
														CHANNELS 3 Zrotation Xrotation Yrotation
														JOINT Model19
														{
															OFFSET 4.61131 0 0
															CHANNELS 3 Zrotation Xrotation Yrotation
															JOINT Model20
															{
																OFFSET 2.8969 -7.62939e-006 0
																CHANNELS 3 Zrotation Xrotation Yrotation
																End Site
																{
																	OFFSET 0 0 0
																}
															}
														}
													}
													JOINT Model21
													{
														OFFSET 9.54431 -0.745064 0.588928
														CHANNELS 3 Zrotation Xrotation Yrotation
														JOINT Model22
														{
															OFFSET 5.33978 0 0
															CHANNELS 3 Zrotation Xrotation Yrotation
															JOINT Model23
															{
																OFFSET 3.03619 7.62939e-006 0
																CHANNELS 3 Zrotation Xrotation Yrotation
																End Site
																{
																	OFFSET 0 0 0
																}
															}
														}
													}
													JOINT Model24
													{
														OFFSET 9.47758 1.51286 0.485107
														CHANNELS 3 Zrotation Xrotation Yrotation
														JOINT Model25
														{
															OFFSET 4.96136 7.62939e-006 0
															CHANNELS 3 Zrotation Xrotation Yrotation
															JOINT Model26
															{
																OFFSET 2.51965 0 0
																CHANNELS 3 Zrotation Xrotation Yrotation
																End Site
																{
																	OFFSET 0 0 0
																}
															}
														}
													}
													JOINT Model27
													{
														OFFSET 9.34247 3.34117 -0.239288
														CHANNELS 3 Zrotation Xrotation Yrotation
														JOINT Model28
														{
															OFFSET 3.28259 2.28882e-005 0
															CHANNELS 3 Zrotation Xrotation Yrotation
															JOINT Model29
															{
																OFFSET 2.1292 0 0
																CHANNELS 3 Zrotation Xrotation Yrotation
																End Site
																{
																	OFFSET 0 0 0
																}
															}
														}
													}
												}
											}
										}
									}
								}
							}
						}
					}
					JOINT Model30
					{
						OFFSET 10.8223 0.4179 -3.51108
						CHANNELS 3 Zrotation Xrotation Yrotation
						JOINT Model31
						{
							OFFSET 6.07944 0 0
							CHANNELS 3 Zrotation Xrotation Yrotation
							JOINT Model32
							{
								OFFSET 0.277405 -10.39 0.051239
								CHANNELS 3 Zrotation Xrotation Yrotation
								JOINT Model33
								{
									OFFSET 3.43909 0.282043 -1.86679
									CHANNELS 3 Zrotation Xrotation Yrotation
									JOINT Model34
									{
										OFFSET -13.0269 0 0
										CHANNELS 3 Zrotation Xrotation Yrotation
										JOINT Model35
										{
											OFFSET -10.8866 0 0
											CHANNELS 3 Zrotation Xrotation Yrotation
											JOINT Model36
											{
												OFFSET -16.7317 0 0
												CHANNELS 3 Zrotation Xrotation Yrotation
												JOINT Model37
												{
													OFFSET -11.8292 0 0
													CHANNELS 3 Zrotation Xrotation Yrotation
													JOINT Model38
													{
														OFFSET -4.82751 3.73566 0.836517
														CHANNELS 3 Zrotation Xrotation Yrotation
														JOINT Model39
														{
															OFFSET -3.75311 0.0582886 0.0186462
															CHANNELS 3 Zrotation Xrotation Yrotation
															JOINT Model40
															{
																OFFSET -2.88687 -0.0192337 -0.014801
																CHANNELS 3 Zrotation Xrotation Yrotation
																End Site
																{
																	OFFSET 0 0 0
																}
															}
														}
													}
													JOINT Model41
													{
														OFFSET -9.72198 3.06459 -0.23877
														CHANNELS 3 Zrotation Xrotation Yrotation
														JOINT Model42
														{
															OFFSET -4.6113 0 0
															CHANNELS 3 Zrotation Xrotation Yrotation
															JOINT Model43
															{
																OFFSET -2.89691 0 0
																CHANNELS 3 Zrotation Xrotation Yrotation
																End Site
																{
																	OFFSET 0 0 0
																}
															}
														}
													}
													JOINT Model44
													{
														OFFSET -9.54431 0.745064 -0.588928
														CHANNELS 3 Zrotation Xrotation Yrotation
														JOINT Model45
														{
															OFFSET -5.33978 0 0
															CHANNELS 3 Zrotation Xrotation Yrotation
															JOINT Model46
															{
																OFFSET -3.03619 -1.52588e-005 0
																CHANNELS 3 Zrotation Xrotation Yrotation
																End Site
																{
																	OFFSET 0 0 0
																}
															}
														}
													}
													JOINT Model47
													{
														OFFSET -9.4776 -1.51286 -0.485107
														CHANNELS 3 Zrotation Xrotation Yrotation
														JOINT Model48
														{
															OFFSET -4.96136 -1.52588e-005 0
															CHANNELS 3 Zrotation Xrotation Yrotation
															JOINT Model49
															{
																OFFSET -2.51965 0 0
																CHANNELS 3 Zrotation Xrotation Yrotation
																End Site
																{
																	OFFSET 0 0 0
																}
															}
														}
													}
													JOINT Model50
													{
														OFFSET -9.34247 -3.34118 0.239288
														CHANNELS 3 Zrotation Xrotation Yrotation
														JOINT Model51
														{
															OFFSET -3.28259 -2.28882e-005 0
															CHANNELS 3 Zrotation Xrotation Yrotation
															JOINT Model52
															{
																OFFSET -2.12921 0 0
																CHANNELS 3 Zrotation Xrotation Yrotation
																End Site
																{
																	OFFSET 0 0 0
																}
															}
														}
													}
												}
											}
										}
									}
								}
							}
						}
					}
				}
			}
		}
	}
	JOINT Model53
	{
		OFFSET 4.38025 -2.14632 -1.11517
		CHANNELS 3 Zrotation Xrotation Yrotation
		JOINT Model54
		{
			OFFSET 0 0 4.94998
			CHANNELS 3 Zrotation Xrotation Yrotation
			JOINT Model55
			{
				OFFSET 18.5642 0 0
				CHANNELS 3 Zrotation Xrotation Yrotation
				JOINT Model56
				{
					OFFSET 21.2884 0 0
					CHANNELS 3 Zrotation Xrotation Yrotation
					JOINT Model57
					{
						OFFSET 30.261 0 0
						CHANNELS 3 Zrotation Xrotation Yrotation
						JOINT Model58
						{
							OFFSET 11.7259 0 0
							CHANNELS 3 Zrotation Xrotation Yrotation
							JOINT Model59
							{
								OFFSET 10.682 0 0
								CHANNELS 3 Zrotation Xrotation Yrotation
								End Site
								{
									OFFSET 0 0 0
								}
							}
						}
					}
				}
			}
		}
	}
	JOINT Model60
	{
		OFFSET -4.38025 -2.14632 -1.11517
		CHANNELS 3 Zrotation Xrotation Yrotation
		JOINT Model61
		{
			OFFSET 0 0 -4.94998
			CHANNELS 3 Zrotation Xrotation Yrotation
			JOINT Model62
			{
				OFFSET -18.5642 0 0
				CHANNELS 3 Zrotation Xrotation Yrotation
				JOINT Model63
				{
					OFFSET -21.2884 0 0
					CHANNELS 3 Zrotation Xrotation Yrotation
					JOINT Model64
					{
						OFFSET -30.261 0 0
						CHANNELS 3 Zrotation Xrotation Yrotation
						JOINT Model65
						{
							OFFSET -11.7259 0 0
							CHANNELS 3 Zrotation Xrotation Yrotation
							JOINT Model66
							{
								OFFSET -10.682 0 0
								CHANNELS 3 Zrotation Xrotation Yrotation
								End Site
								{
									OFFSET 0 0 0
								}
							}
						}
					}
				}
			}
		}
	}
}
MOTION
Frames: 4
Frame Time: 0.033333
-655.144 173.916 -705.12 91.391 -49.5056 92.9143 -180 4.29621e-031 -90 0.274033 0.229985 -0.259837 0.549107 0.458284 -0.520777 0.549107 0.458722 -0.520782 -0.378806 0.266748 0.312084 11.2604 0.411748 3.0344 120.092 75.5343 58.4939 15.0192 -0.234207 -2.22045 -167.277 84.4999 48.8109 168.682 -11.5887 -26.9597 3.77806e-006 13.1508 3.05263e-005 0.0328716 -2.46667 0.612476 -1.62272e-007 -3.63612 -4.17715e-007 5.67837 0.0278177 0.560919 -72.0648 39.0385 39.3397 33.3638 2.10362 14.835 0.588947 0.308273 6.35287 -99.6409 81.413 100.35 -0.0181409 2.77935e-005 -0.117315 -0.124139 0.00241114 -0.799296 -79.8382 79.5773 80.5374 -0.000225784 -0.000220909 2.2177e-005 -0.000956236 0.000122914 -2.73443e-005 -66.7416 80.4058 67.2171 -0.00043714 1.596e-005 -2.73382e-005 -0.000136615 -0.000109272 -5.46652e-005 -6.42159 81.2158 8.01779 -0.000218578 1.69203e-005 0.00021212 0.000901568 -0.000184785 -0.000218594 -59.9282 75.5373 58.5147 7.8448 2.16912 -0.491262 -167.277 84.4999 48.8109 169.852 -19.5475 -20.0554 7.12719e-006 -0.329191 2.9097e-005 -1.55582 9.63641 -0.116428 -5.76568e-006 14.4823 2.49312e-006 4.94745 -0.205117 -4.74527 -72.0648 39.0385 39.3397 33.3638 2.10361 14.835 0.588946 0.308273 6.35287 -99.6409 81.413 100.35 -0.0181409 3.01144e-005 -0.117315 -0.124139 0.00241118 -0.799296 -79.8382 79.5773 80.5374 -0.00026063 -0.000218531 2.35937e-005 -0.000956204 0.000123044 -2.72892e-005 -66.7416 80.4058 67.2171 -0.000437115 1.49177e-005 -2.72984e-005 -0.00013658 -0.000109234 -5.46113e-005 -6.42159 81.2158 8.01779 -0.000218545 1.96158e-005 0.000212312 0.000901611 -0.000191195 -0.000218545 0.000811311 0.56661 89.91 -16.2773 -2.56915 -8.71332 5.82392e-007 1.56515 -4.53331e-009 37.7331 -4.44777 -3.24191 -2.00925e-007 -6.75403 -2.07862e-007 -68.8487 -8.87291 3.74725 -35.4947 6.02106e-007 1.17058e-007 -180 -0.566579 -90.09 -15.7453 -3.3332 -7.76925 -1.301e-008 -0.0981209 -1.7977e-010 34.8618 -2.20939 -0.944321 3.15288e-007 -3.38041 -1.98995e-007 -67.1337 -6.77567 2.82666 -35.4947 -1.44026e-007 3.01319e-007 
-655.187 173.906 -705.147 91.6294 -49.5476 93.1943 -180 4.29621e-031 -90 0.376935 0.247488 -0.229827 0.754865 0.493019 -0.461284 0.754865 0.493456 -0.46129 -0.696862 0.396756 -0.416036 10.7158 0.373885 3.54246 120.092 75.5343 58.4939 12.4241 0.636006 -1.63347 -167.277 84.4999 48.8109 168.654 -11.2158 -26.5353 3.55507e-006 13.5577 3.05778e-005 0.051048 -2.70398 0.883103 -1.64876e-007 -3.9924 -4.17888e-007 5.19688 0.0257988 0.568481 -72.0648 39.0385 39.3397 33.3638 2.10362 14.835 0.588947 0.308273 6.35287 -99.6409 81.413 100.35 -0.0181409 2.77935e-005 -0.117315 -0.124139 0.00241114 -0.799296 -79.8382 79.5773 80.5374 -0.000225784 -0.000220909 2.2177e-005 -0.000956236 0.000122914 -2.73443e-005 -66.7416 80.4058 67.2171 -0.00043714 1.596e-005 -2.73382e-005 -0.000136615 -0.000109272 -5.46652e-005 -6.42159 81.2158 8.01779 -0.000218578 1.69203e-005 0.00021212 0.000901568 -0.000184785 -0.000218594 -59.9282 75.5373 58.5147 6.28126 2.91982 -0.012837 -167.277 84.4999 48.8109 170.617 -19.2153 -17.7036 7.11661e-006 -0.308349 2.9097e-005 -1.55584 9.63642 -0.116416 -5.76568e-006 14.4823 2.49312e-006 4.89253 -0.178351 -4.17297 -72.0648 39.0385 39.3397 33.3638 2.10361 14.835 0.588946 0.308273 6.35287 -99.6409 81.413 100.35 -0.0181409 3.01144e-005 -0.117315 -0.124139 0.00241118 -0.799296 -79.8382 79.5773 80.5374 -0.00026063 -0.000218531 2.35937e-005 -0.000956204 0.000123044 -2.72892e-005 -66.7416 80.4058 67.2171 -0.000437115 1.49177e-005 -2.72984e-005 -0.00013658 -0.000109234 -5.46113e-005 -6.42159 81.2158 8.01779 -0.000218545 1.96158e-005 0.000212312 0.000901611 -0.000191195 -0.000218545 0.000811311 0.56661 89.91 -16.1647 -2.49909 -8.65238 5.82398e-007 1.64773 -4.53349e-009 37.7864 -4.57952 -3.441 -2.01654e-007 -6.95351 -2.07949e-007 -68.7934 -9.03993 3.84316 -35.4947 6.02127e-007 1.14609e-007 -180 -0.566579 -90.09 -15.6294 -3.4807 -7.73935 -1.30107e-008 -0.32466 -1.79773e-010 34.8493 -2.09323 -0.967443 3.15895e-007 -3.20613 -1.98961e-007 -67.1082 -6.67176 2.77247 -35.4947 -1.43037e-007 -9.70564e-007 
-655.251 173.909 -705.174 91.7057 -49.6896 93.3378 -180 4.29621e-031 -90 0.431462 0.265429 -0.20383 0.863875 0.528876 -0.409659 0.863876 0.529314 -0.409666 -1.15358 0.634743 -0.724417 10.3557 0.521502 3.45119 120.092 75.5343 58.4939 9.98105 1.24135 -1.08812 -167.277 84.4999 48.8109 168.647 -10.5131 -25.2375 3.20058e-006 14.2016 3.06628e-005 0.0466378 -3.01467 0.737726 -1.68284e-007 -4.45829 -4.18139e-007 4.95748 0.0559169 1.29166 -72.0648 39.0385 39.3397 33.3638 2.10362 14.835 0.588947 0.308273 6.35287 -99.6409 81.413 100.35 -0.0181409 2.77935e-005 -0.117315 -0.124139 0.00241114 -0.799296 -79.8382 79.5773 80.5374 -0.000225784 -0.000220909 2.2177e-005 -0.000956236 0.000122914 -2.73443e-005 -66.7416 80.4058 67.2171 -0.00043714 1.596e-005 -2.73382e-005 -0.000136615 -0.000109272 -5.46652e-005 -6.42159 81.2158 8.01779 -0.000218578 1.69203e-005 0.00021212 0.000901568 -0.000184785 -0.000218594 -59.9282 75.5373 58.5147 4.72834 3.39448 0.413184 -167.277 84.4999 48.8109 171.065 -18.6676 -14.8311 7.10167e-006 -0.278941 2.90969e-005 -1.5586 9.56306 -0.115056 -5.76074e-006 14.3722 2.49189e-006 5.1538 -0.168867 -3.75084 -72.0648 39.0385 39.3397 33.3638 2.10361 14.835 0.588946 0.308273 6.35287 -99.6409 81.413 100.35 -0.0181409 3.01144e-005 -0.117315 -0.124139 0.00241118 -0.799296 -79.8382 79.5773 80.5374 -0.00026063 -0.000218531 2.35937e-005 -0.000956204 0.000123044 -2.72892e-005 -66.7416 80.4058 67.2171 -0.000437115 1.49177e-005 -2.72984e-005 -0.00013658 -0.000109234 -5.46113e-005 -6.42159 81.2158 8.01779 -0.000218545 1.96158e-005 0.000212312 0.000901611 -0.000191195 -0.000218545 0.000811311 0.56661 89.91 -16.1374 -2.48219 -8.71883 5.82404e-007 1.71767 -4.53365e-009 37.8057 -4.65395 -3.459 -2.02064e-007 -7.06553 -2.07999e-007 -68.7547 -9.11542 3.88845 -35.4947 6.04828e-007 1.09625e-007 -180 -0.566579 -90.09 -15.6787 -3.74257 -7.7841 -1.30118e-008 -0.696221 -1.79783e-010 34.8098 -1.80767 -1.05654 3.17384e-007 -2.77773 -1.98883e-007 -67.0587 -6.47994 2.67258 -35.4947 -1.32946e-007 -4.68278e-006 
-655.325 173.912 -705.227 91.6805 -49.9502 93.3428 -180 4.29621e-031 -90 0.441902 0.265663 -0.194744 0.884715 0.529376 -0.391538 0.884715 0.529814 -0.391545 -1.83545 0.896382 -1.10994 10.3388 0.681799 3.46222 120.092 75.5343 58.4939 7.8425 0.924145 -0.787679 -167.277 84.4999 48.8109 168.268 -9.32851 -22.729 2.73169e-006 15.0477 3.07812e-005 0.024196 -3.37256 0.348359 -1.72214e-007 -4.99481 -4.18463e-007 4.87928 0.0853812 2.00381 -72.0648 39.0385 39.3397 33.3638 2.10362 14.835 0.588947 0.308273 6.35287 -99.6409 81.413 100.35 -0.0181409 2.77935e-005 -0.117315 -0.124139 0.00241114 -0.799296 -79.8382 79.5773 80.5374 -0.000225784 -0.000220909 2.2177e-005 -0.000956236 0.000122914 -2.73443e-005 -66.7416 80.4058 67.2171 -0.00043714 1.596e-005 -2.73382e-005 -0.000136615 -0.000109272 -5.46652e-005 -6.42159 81.2158 8.01779 -0.000218578 1.69203e-005 0.00021212 0.000901568 -0.000184785 -0.000218594 -59.9282 75.5373 58.5147 2.93751 3.53167 0.808448 -167.277 84.4999 48.8109 171.069 -17.9264 -11.549 7.08264e-006 -0.241476 2.90968e-005 -1.556 9.63128 -0.116339 -5.76533e-006 14.4746 2.49304e-006 5.13364 -0.154974 -3.45597 -72.0648 39.0385 39.3397 33.3638 2.10361 14.835 0.588946 0.308273 6.35287 -99.6409 81.413 100.35 -0.0181409 3.01144e-005 -0.117315 -0.124139 0.00241118 -0.799296 -79.8382 79.5773 80.5374 -0.00026063 -0.000218531 2.35937e-005 -0.000956204 0.000123044 -2.72892e-005 -66.7416 80.4058 67.2171 -0.000437115 1.49177e-005 -2.72984e-005 -0.00013658 -0.000109234 -5.46113e-005 -6.42159 81.2158 8.01779 -0.000218545 1.96158e-005 0.000212312 0.000901611 -0.000191195 -0.000218545 0.000811311 0.56661 89.91 -16.1639 -2.50962 -8.75877 5.82402e-007 1.69758 -4.53361e-009 37.7929 -4.7308 -3.47057 -2.02486e-007 -7.18109 -2.08051e-007 -68.6877 -9.1809 3.93234 -35.4947 6.10076e-007 1.02231e-007 -180 -0.566579 -90.09 -15.8928 -4.02392 -7.91948 -1.3013e-008 -1.06076 -1.79801e-010 34.8338 -1.44455 -1.13024 3.19276e-007 -2.23305 -1.988e-007 -67.0139 -6.23 2.54 -35.4947 -1.14275e-007 -1.06972e-005 
